<svg width="28" height="29" viewBox="0 0 28 29" fill="none" xmlns="http://www.w3.org/2000/svg">
<path fill-rule="evenodd" clip-rule="evenodd" d="M2.76025 13.097C2.76025 7.45372 7.33506 2.87891 12.9784 2.87891C18.6217 2.87891 23.1965 7.45372 23.1965 13.097C23.1965 15.8607 22.0993 18.3681 20.3168 20.2074C20.2735 20.2386 20.232 20.2737 20.1931 20.3127C20.1541 20.3517 20.119 20.3931 20.0878 20.4364C18.2486 22.2184 15.7416 23.3152 12.9784 23.3152C7.33506 23.3152 2.76025 18.7403 2.76025 13.097ZM20.8814 22.4153C18.7509 24.224 15.9921 25.3152 12.9784 25.3152C6.23049 25.3152 0.760254 19.8449 0.760254 13.097C0.760254 6.34915 6.23049 0.878906 12.9784 0.878906C19.7263 0.878906 25.1965 6.34915 25.1965 13.097C25.1965 16.1112 24.105 18.8705 22.2957 21.0012L27.7071 26.4126C28.0976 26.8031 28.0976 27.4363 27.7071 27.8268C27.3166 28.2173 26.6834 28.2173 26.2929 27.8268L20.8814 22.4153Z" fill="black" fill-opacity="0.4"/>
</svg>
