<svg width="36" height="29" viewBox="0 0 36 29" fill="none" xmlns="http://www.w3.org/2000/svg">
<path fill-rule="evenodd" clip-rule="evenodd" d="M6.16449 2.5H0.896484V0.5H6.89648H7.62848L7.84972 1.19776L9.84799 7.5H33.8965H35.3332L34.8342 8.84731L29.8342 22.3473L29.5925 23H28.8965H13.3965H12.6645L12.4433 22.3022L8.16277 8.80224L6.16449 2.5ZM10.4821 9.5L14.1285 21H28.2005L32.4597 9.5H10.4821ZM17.3965 26.5C17.3965 27.6046 16.5011 28.5 15.3965 28.5C14.2919 28.5 13.3965 27.6046 13.3965 26.5C13.3965 25.3954 14.2919 24.5 15.3965 24.5C16.5011 24.5 17.3965 25.3954 17.3965 26.5ZM27.3965 28.5C28.5011 28.5 29.3965 27.6046 29.3965 26.5C29.3965 25.3954 28.5011 24.5 27.3965 24.5C26.2919 24.5 25.3965 25.3954 25.3965 26.5C25.3965 27.6046 26.2919 28.5 27.3965 28.5Z" fill="black"/>
</svg>
