<svg width="29" height="29" viewBox="0 0 29 29" fill="none" xmlns="http://www.w3.org/2000/svg">
<path fill-rule="evenodd" clip-rule="evenodd" d="M14.8965 0.5C8.31957 0.5 2.9865 5.78349 2.90039 12.3398C1.71977 12.9046 0.896484 14.1126 0.896484 15.5V19.5C0.896484 21.4217 2.47479 23 4.39648 23C6.31818 23 7.89648 21.4217 7.89648 19.5V15.5C7.89648 13.7518 6.59081 12.2892 4.9082 12.0391C5.14609 6.69926 9.49386 2.5 14.8965 2.5C20.2991 2.5 24.6469 6.69926 24.8848 12.0391C23.2022 12.2892 21.8965 13.7518 21.8965 15.5V19.5C21.8965 21.4217 23.4748 23 25.3965 23C25.5533 23 25.7078 22.989 25.8594 22.9688C25.6369 24.4108 24.4053 25.5 22.8965 25.5H19.8457C19.6103 24.367 18.5932 23.5 17.3965 23.5H14.3965C13.0288 23.5 11.8965 24.6323 11.8965 26C11.8965 27.3677 13.0288 28.5 14.3965 28.5H17.3965C18.2041 28.5 18.9299 28.1049 19.3887 27.5H22.8965C25.6461 27.5 27.8965 25.2496 27.8965 22.5V21.9395C28.5135 21.3073 28.8965 20.4455 28.8965 19.5V15.5C28.8965 14.1126 28.0732 12.9046 26.8926 12.3398C26.8065 5.78349 21.4734 0.5 14.8965 0.5Z" fill="black"/>
</svg>
