<svg width="25" height="25" viewBox="0 0 25 25" fill="none" xmlns="http://www.w3.org/2000/svg">
<path fill-rule="evenodd" clip-rule="evenodd" d="M7.3335 7.20964C7.3335 4.63231 9.42283 2.54297 12.0002 2.54297C14.5775 2.54297 16.6668 4.63231 16.6668 7.20964C16.6668 9.78697 14.5775 11.8763 12.0002 11.8763C9.42283 11.8763 7.3335 9.78697 7.3335 7.20964ZM12.0002 0.542969C8.31826 0.542969 5.3335 3.52774 5.3335 7.20964C5.3335 10.8915 8.31826 13.8763 12.0002 13.8763C15.6821 13.8763 18.6668 10.8915 18.6668 7.20964C18.6668 3.52774 15.6821 0.542969 12.0002 0.542969ZM7.00016 13.959C5.23205 13.959 3.53636 14.6614 2.28612 15.9116C1.03587 17.1618 0.333496 18.8575 0.333496 20.6257V23.459C0.333496 24.0113 0.781211 24.459 1.3335 24.459C1.88578 24.459 2.3335 24.0113 2.3335 23.459V20.6257C2.3335 19.388 2.82516 18.201 3.70033 17.3258C4.5755 16.4507 5.76249 15.959 7.00016 15.959H18.3335C19.5712 15.959 20.7582 16.4507 21.6333 17.3258C22.5085 18.201 23.0002 19.388 23.0002 20.6257V23.459C23.0002 24.0113 23.4479 24.459 24.0002 24.459C24.5524 24.459 25.0002 24.0113 25.0002 23.459V20.6257C25.0002 18.8575 24.2978 17.1618 23.0475 15.9116C21.7973 14.6614 20.1016 13.959 18.3335 13.959H7.00016Z" fill="black"/>
</svg>
